<svg id="Isolation_Mode" data-name="Isolation Mode" xmlns="http://www.w3.org/2000/svg" viewBox="0 0 980.1 731"><path d="M724.3,221.6c-7.8,0-15.5.3-23.1,1l33.1,65.7c99.8,5.1,179.1,87.3,179.1,188,0,104-84.7,188.3-189.1,188.3S535.2,580.3,535.2,476.3a186.6,186.6,0,0,1,24.4-92.7l-34-67.8a253.24,253.24,0,0,0-57.1,160.5C468.5,617,583,731,724.3,731S980.1,617,980.1,476.3,865.6,221.6,724.3,221.6Z"></path><path d="M200.2,664.5c-73.8,0-133.5-59.5-133.5-132.9,0-62.8,43.8-115.4,102.6-129.3l-40.1-57.1C53.7,373.7,0,446.4,0,531.6,0,641.7,89.6,731,200.2,730.9a200.17,200.17,0,0,0,151.6-69.1l-40.1-57.1A133.62,133.62,0,0,1,200.2,664.5Z"></path><path d="M312.2,395.9a20,20,0,0,0,2.9-1.5L539.9,215.1a33.94,33.94,0,0,0,5.3-3.8L722.3,516.7a30.13,30.13,0,0,0,52.2-30.1L501.1,15c-7.2-12.4-14-15-33.4-15H322.2a32.7,32.7,0,1,0,0,65.4H456.3c1.4,0,4.2-.3,4.2-.3l52.8,91a54.17,54.17,0,0,0-5.4,3.2L283.1,338.7c-.7.4-1.3.8-2,1.2L214.6,220.5h19.2a32.7,32.7,0,1,0,0-65.4H99.8a32.7,32.7,0,1,0,0,65.4h48.1L324.8,538.4c7.8,14.7,25.2,19.8,38.9,11.2s18.4-27.3,10.5-42.1Z"></path></svg>