<svg id="Isolation_Mode" data-name="Isolation Mode" xmlns="http://www.w3.org/2000/svg" viewBox="0 0 1005 912.72"><path d="M998.76,39.23c-7.42-15.54-19.06-25.58-35.59-30.69l-.15,0c-14-4.13-27.44-4.1-65.52.14-37,4-141.85,4.54-183.94.94C705.86,8.92,695.33,8,684.45,7,673,6,661.15,5,651.83,4.17,621.33,1.31,468-1.25,441.27.66h0C379.94,5.3,336,11.83,289.51,23.2,202.09,44.73,133.62,81,86,131.09,38.05,181.48,9.85,247.16,2.18,326.26,1,338.38,0,378,0,414.59c0,61.07.4,69,4.24,84.37,8.08,31.91,27.27,65.46,51.39,89.79,32.17,32,75.69,54,122.52,62.15,21.67,3.79,64.89,3.89,85.61.19l11.18-2L370,680.75l89.58,30c.21,13.62,6.7,33.79,15.25,47.3l.13.2c6.6,10,19.24,23,30.79,31.84l-12.71,37.64c-7.34,22-16.09,49.55-16.09,55.71,0,14.51,15,29.3,29.69,29.3,21.85,0,26.88-15.2,43.52-65.49l13.67-40.7,4.36-.48c30.38-3,58.75-20.7,75.89-47.28,16.25-25.18,20.44-54.77,11.52-81.14-7.35-21.82-21.45-40.48-41.93-55.5l46-138c23.57-70.9,42.7-127.24,48.43-143.23,5.76-1.53,20.09-4.61,55.7-10.55,34.72-5.85,64.25-18.21,98.76-41.35,63.59-42.86,120-115.25,137.3-176.06,3.52-12,4.91-22.35,5.12-38v-.17C1005,57,1004.39,51.23,998.76,39.23ZM597.35,723.56c-5.74,12.88-17.49,20.87-33.11,22.51-14.66,1.54-27.35-3.13-35.69-13.16-8.88-10.68-11.3-25.82-6.65-41.5s20.37-25.53,38-25.53a48.86,48.86,0,0,1,14,2.06c8.92,2.68,18.27,10.71,22.25,19.07l.11.23C600.12,695,600.73,715.61,597.35,723.56Zm.76-245.91L555.39,605.82c-13.64.22-33.81,6.71-47.3,15.26l-.09.06c-10.27,6.63-23.47,19.51-32.14,31.26l-62.39-20.85-38.08-12.62c43.66-18.41,72.94-42,104.54-83.4l.06-.09c6.72-9,24-34.19,38.49-56.25,31.81-48.47,39.22-58.33,56.62-75.37,16.83-16.51,36-29.34,61.07-40.81C628.54,386.25,615.3,426.21,598.11,477.65ZM927,132.21c-26.14,45.35-64.57,86.52-105.39,112.92-22.1,14.12-44.49,21.9-80,27.75C643.84,289.56,582.32,315.17,536,358.5c-21.82,20.24-34.41,36.4-67.41,86.5-34.81,53.09-45.65,67.44-64.41,85.3-24.05,23-48.83,35.31-98.21,48.94-44,12.22-62.43,15.38-89.74,15.38-37.66,0-66.4-7.83-93.25-25.42-27.87-18-45.87-41.67-58.32-76.68-3.29-9.38-3.74-12.54-4.51-63.61C59,343,63.77,297.88,78.35,256.57,106.56,177.09,167,123.08,263,91.44c51.85-16.9,94.7-24.41,176.32-30.9,7.91-.63,32.54-.92,60.48-.92,38.41,0,83.06.55,99,1.51,18.92,1.25,55.19,4,80.82,6.16,67.84,5.88,174.51,6.23,228.25.76,31.05-3.1,33.4-2.91,37.07-1.46a5.77,5.77,0,0,1,3.61,3.82C949.73,74.13,951.86,89.57,927,132.21Z"></path></svg>