<svg id="OBJECTS" xmlns="http://www.w3.org/2000/svg" viewBox="0 0 117.81 73.87"><defs><style>.cls-1{fill:#df453e;}.cls-2{fill:#5d6b6d;}.cls-3{fill:#12282a;}</style></defs><path class="cls-1" d="M58.31,0A22.8,22.8,0,0,0,35.55,22.46h3.7a21.83,21.83,0,0,1,.18-2.3l9.75,2.3h1.35l-11.06-2.6c.08-.55.2-1.08.32-1.61l11.86,1.93,2.43,1.75-2.27.53h3.53l-.53-.39.84-.2.26.42-.23.17h1.61a1.06,1.06,0,0,1,2,0H61l-.24-.17.26-.42.84.2-.53.39h.52l.41-.29,1.25.29h1.35l-2.26-.53L65,20.18l11.86-1.93c.13.53.24,1.06.32,1.61l-11.06,2.6h1.35l9.75-2.3a21.83,21.83,0,0,1,.18,2.3h3.7A22.8,22.8,0,0,0,58.31,0ZM73.5,11.26l-9.66,6,6-9.66A19.78,19.78,0,0,1,73.5,11.26ZM69.57,7.4,63.25,17.61l-2.54,1.57.48-2.95,7-9.75C68.67,6.77,69.13,7.07,69.57,7.4ZM62.88,18.2,61.5,20.44l-1,.16.16-1ZM67.94,6.33,61.3,15.55,63.13,4.32A18.9,18.9,0,0,1,67.94,6.33ZM62.83,4.25,60.9,16.11l-1.75,2.42-.68-2.9,2.75-11.7C61.77,4,62.3,4.12,62.83,4.25ZM58.91,18.87l-.6.83-.6-.83.6-2.57Zm-.6-15.16a18.86,18.86,0,0,1,2.61.18L58.31,15,55.71,3.89A18.61,18.61,0,0,1,58.31,3.71Zm-2.91.22,2.75,11.7-.68,2.9-1.75-2.42L53.79,4.25C54.32,4.12,54.85,4,55.4,3.93Zm-1.91.39,1.83,11.23L48.68,6.33A18.9,18.9,0,0,1,53.49,4.32ZM48.41,6.48l7,9.75.48,2.95-2.54-1.57L47.05,7.4C47.49,7.07,48,6.77,48.41,6.48ZM56,19.58l.16,1-1-.16L53.74,18.2Zm-9.17-12,6,9.66-9.67-6A19.78,19.78,0,0,1,46.81,7.58ZM39.87,18a18.52,18.52,0,0,1,2-4.81l9.22,6.64ZM42,12.87c.29-.47.6-.92.92-1.36l10.21,6.32,1.57,2.54-2.94-.48Zm12.45,9-2.13-1.54,2.6.43.54.88Zm1.65.22L56,21.8l.29-.07A3.09,3.09,0,0,0,56.12,22.05Zm-.32-.53-.46-.74.86.14.08.49Zm.77-.25,0-.29.29,0A1.88,1.88,0,0,0,56.57,21.27Zm.38-.54-.48-.08-.14-.85.73.45Zm-.69-1.34-.42-2.6,1.53,2.14-.23,1Zm1,1.33.07-.29.25.15A1.83,1.83,0,0,0,57.27,20.72Zm.56-.35-.42-.26.2-.85.51.71Zm.48.1h-.17l.17-.24.17.24Zm.48-.1L58.5,20l.51-.71.2.85Zm.24.21.25-.15.07.29A1.83,1.83,0,0,0,59,20.58Zm.22-1.65,1.53-2.14-.42,2.6-.88.55Zm.81,2.34L59.81,21l.29,0Zm.1-.62-.49.08-.11-.48.74-.45Zm.34,1.4a1.83,1.83,0,0,0-.14-.32l.29.07Zm.32-.53-.47-.11.08-.49.85-.14Zm1.33.31-1-.23.55-.88,2.59-.43Zm2.7-1.94-2.95.48,1.57-2.54,10.21-6.32c.32.44.63.89.92,1.36Zm.68-.11,9.22-6.64a18.52,18.52,0,0,1,2,4.81Z"/><path class="cls-1" d="M81.06,14.58a23.31,23.31,0,0,1,1.11,4.33H92.72A8.19,8.19,0,0,0,100,14.58Z"/><path class="cls-1" d="M82.48,22.77q0,1.1-.09,2.16H89.9a8.19,8.19,0,0,0,7.23-4.33H82.39C82.45,21.32,82.48,22,82.48,22.77Z"/><path class="cls-1" d="M81.06,31h1.38a8.2,8.2,0,0,0,7.24-4.32H82.17A23,23,0,0,1,81.06,31Z"/><path class="cls-1" d="M16.66,14.58a8.19,8.19,0,0,0,7.24,4.33H34.45a23.31,23.31,0,0,1,1.11-4.33Z"/><path class="cls-1" d="M19.49,20.6a8.19,8.19,0,0,0,7.23,4.33h7.51q-.09-1.07-.09-2.16c0-.73,0-1.45.09-2.17Z"/><path class="cls-2" d="M27.62,69.4a2,2,0,0,0,1.11-.66,2,2,0,0,0,.42-1.31,1.94,1.94,0,0,0-.68-1.56,3,3,0,0,0-1.95-.57H23.21v8.47h3.37a3,3,0,0,0,2.05-.62,2.11,2.11,0,0,0,.71-1.67,2,2,0,0,0-.48-1.34A2.09,2.09,0,0,0,27.62,69.4Zm-3.05-3h1.65a1.69,1.69,0,0,1,1.14.34,1.14,1.14,0,0,1,.38.93,1.16,1.16,0,0,1-.38.93,1.55,1.55,0,0,1-1.09.34h-1.7Zm2.94,5.88a1.89,1.89,0,0,1-1.21.35H24.57v-2.7h1.72a1.84,1.84,0,0,1,1.21.36,1.38,1.38,0,0,1,0,2Z"/><polygon class="cls-2" points="36 72.09 33.24 65.43 31.58 65.43 31.58 73.77 32.95 73.77 32.95 67.52 35.37 73.77 36.57 73.77 38.98 67.52 38.98 73.77 40.37 73.77 40.37 65.43 38.71 65.43 36 72.09"/><polygon class="cls-2" points="49.33 65.3 47.76 65.3 45.96 68.37 43.97 65.3 42.33 65.3 45.02 69.45 42.39 73.77 43.97 73.77 45.78 70.64 47.81 73.77 49.44 73.77 46.71 69.55 49.33 65.3"/><path class="cls-2" d="M59.54,69.47A9.18,9.18,0,0,0,58.22,69c-.42-.15-.76-.27-1-.38a1.74,1.74,0,0,1-.61-.44,1.08,1.08,0,0,1-.24-.72,1,1,0,0,1,.35-.84,1.37,1.37,0,0,1,.93-.3,1.46,1.46,0,0,1,1,.34,1.51,1.51,0,0,1,.45.83h1.47a2.35,2.35,0,0,0-.87-1.64,3.15,3.15,0,0,0-2.05-.62,3.4,3.4,0,0,0-1.44.28,2.18,2.18,0,0,0-1,.8,2.09,2.09,0,0,0-.34,1.2,2.11,2.11,0,0,0,.35,1.26,2.25,2.25,0,0,0,.84.73,9.11,9.11,0,0,0,1.29.51,9.3,9.3,0,0,1,1,.38,1.83,1.83,0,0,1,.63.46,1.11,1.11,0,0,1,.25.75,1.2,1.2,0,0,1-.34.87,1.34,1.34,0,0,1-1,.33,1.57,1.57,0,0,1-1.11-.39,1.49,1.49,0,0,1-.47-1H54.93a2.45,2.45,0,0,0,.47,1.27,2.67,2.67,0,0,0,1.09.86,3.83,3.83,0,0,0,1.55.3,3.14,3.14,0,0,0,1.5-.32,2.17,2.17,0,0,0,.91-.86,2.3,2.3,0,0,0,.3-1.15,2.22,2.22,0,0,0-.35-1.3A2.36,2.36,0,0,0,59.54,69.47Z"/><polygon class="cls-2" points="62.43 66.4 64.79 66.4 64.79 73.77 66.17 73.77 66.17 66.4 68.53 66.4 68.53 65.3 62.43 65.3 62.43 66.4"/><path class="cls-2" d="M76.56,65.74a4.12,4.12,0,0,0-2.13-.55,4.19,4.19,0,0,0-2.14.55,4,4,0,0,0-1.5,1.54,4.76,4.76,0,0,0,0,4.48,4,4,0,0,0,1.5,1.55,4.19,4.19,0,0,0,2.14.56,4.13,4.13,0,0,0,2.13-.56,3.92,3.92,0,0,0,1.5-1.55,4.84,4.84,0,0,0,0-4.48A3.9,3.9,0,0,0,76.56,65.74Zm.29,5.4a2.48,2.48,0,0,1-1,1.07,2.76,2.76,0,0,1-1.44.37A2.82,2.82,0,0,1,73,72.21a2.57,2.57,0,0,1-1-1.07,3.58,3.58,0,0,1-.35-1.62A3.64,3.64,0,0,1,72,67.9a2.63,2.63,0,0,1,1-1.07,2.92,2.92,0,0,1,1.45-.37,2.86,2.86,0,0,1,1.44.37,2.54,2.54,0,0,1,1,1.07,3.51,3.51,0,0,1,.36,1.62A3.46,3.46,0,0,1,76.85,71.14Z"/><path class="cls-2" d="M86.33,69.51a2.39,2.39,0,0,0,.56-1.63A2.44,2.44,0,0,0,86.14,66a3.05,3.05,0,0,0-2.2-.71H81v8.47h1.37V70.39h1l2.11,3.38h1.54l-2.22-3.44A2.68,2.68,0,0,0,86.33,69.51Zm-4-.1V66.47h1.51a1.72,1.72,0,0,1,1.25.39A1.46,1.46,0,0,1,85.49,68c0,1-.56,1.46-1.66,1.46Z"/><polygon class="cls-2" points="93.93 66.4 93.93 65.3 89.08 65.3 89.08 73.77 93.93 73.77 93.93 72.66 90.45 72.66 90.45 70.03 93.57 70.03 93.57 68.97 90.45 68.97 90.45 66.4 93.93 66.4"/><polygon class="cls-3" points="16.4 28.21 2.32 28.21 1.44 32.36 5.77 32.36 0 59.72 5.61 59.72 11.37 32.36 15.53 32.36 16.4 28.21"/><polygon class="cls-3" points="30.22 28.21 27.53 40.95 22.5 40.95 25.18 28.21 19.55 28.21 12.91 59.72 18.54 59.72 21.63 45.07 26.67 45.07 23.58 59.72 29.21 59.72 35.85 28.21 30.22 28.21"/><path class="cls-3" d="M54.81,29.17a6.78,6.78,0,0,0-4.12-1h-9.3L34.75,59.72h5.63l3.13-14.88,1.79.09a4.69,4.69,0,0,1,1.76.34,1.21,1.21,0,0,1,.67,1,7,7,0,0,1-.21,2.14c-.15.74-.33,1.59-.53,2.55s-.41,1.94-.61,2.93-.38,1.91-.54,2.77-.29,1.57-.39,2.13a3.61,3.61,0,0,0-.1.92H51a4.36,4.36,0,0,1,.09-.93c.08-.53.2-1.16.34-1.9s.29-1.48.44-2.23l.39-1.94c.12-.55.19-.89.22-1a36.41,36.41,0,0,0,.63-3.88,9.16,9.16,0,0,0,0-2.6,2.78,2.78,0,0,0-.72-1.54A2.65,2.65,0,0,0,50.86,43,4.91,4.91,0,0,0,54,40.91a13.66,13.66,0,0,0,1.58-4.36A19.5,19.5,0,0,0,56.1,32,3.55,3.55,0,0,0,54.81,29.17ZM50.13,36l0,.2a19.71,19.71,0,0,1-.84,3,2.91,2.91,0,0,1-1,1.45,3.05,3.05,0,0,1-1.65.39H44.32l1.94-9.22h1.91a3.54,3.54,0,0,1,1.79.34,1.37,1.37,0,0,1,.53,1.24A13.07,13.07,0,0,1,50.13,36Z"/><polygon class="cls-3" points="62.32 28.21 55.68 59.72 61.31 59.72 67.95 28.21 62.32 28.21"/><polygon class="cls-3" points="79.22 28.21 73.6 28.21 66.96 59.72 79.7 59.72 80.56 55.64 73.44 55.64 79.22 28.21"/><polygon class="cls-3" points="95.01 28.21 89.39 28.21 82.75 59.72 95.49 59.72 96.35 55.64 89.23 55.64 95.01 28.21"/><path class="cls-3" d="M117.24,30.11a3.81,3.81,0,0,0-1.89-1.7,8.88,8.88,0,0,0-3.54-.58,11.45,11.45,0,0,0-4.85.89,6.89,6.89,0,0,0-3,2.6,13.11,13.11,0,0,0-1.6,4.21,8.3,8.3,0,0,0-.12,3.11,7.47,7.47,0,0,0,.92,2.51,13.47,13.47,0,0,0,1.6,2.13l2.22,2.4a10,10,0,0,1,2,3A5.67,5.67,0,0,1,109.2,52a13.78,13.78,0,0,1-.67,2.31,2.76,2.76,0,0,1-1,1.29A2.84,2.84,0,0,1,106,56c-1,0-1.58-.37-1.76-1.11a9.43,9.43,0,0,1,.26-3.66l.67-3.16H99.8l-.59,2.8a18.24,18.24,0,0,0-.45,3.9,6.12,6.12,0,0,0,.66,2.9,4.1,4.1,0,0,0,2.06,1.81,9.42,9.42,0,0,0,3.72.62,10.21,10.21,0,0,0,4.78-1,7.39,7.39,0,0,0,3-2.91,16,16,0,0,0,1.72-4.75,9,9,0,0,0-.2-4.84A12.79,12.79,0,0,0,112,42.42l-2.45-2.81c-.48-.55-.88-1-1.2-1.48a3.82,3.82,0,0,1-.61-1.38,4.35,4.35,0,0,1,.07-1.7,6.54,6.54,0,0,1,.61-1.79,2.67,2.67,0,0,1,1-1,3.12,3.12,0,0,1,1.49-.33,1.57,1.57,0,0,1,1.31.48,2.08,2.08,0,0,1,.36,1.42,13.07,13.07,0,0,1-.32,2.38l-.48,2.26H117l.41-2a18.84,18.84,0,0,0,.44-3.66A6,6,0,0,0,117.24,30.11Z"/></svg>